<svg xmlns="http://www.w3.org/2000/svg" viewBox="0 0 316.48 414.24"><path d="M316.48,158.24C316.48,71,245.49,0,158.24,0S0,71,0,158.24C0,232.57,51.53,295.06,120.74,312v-33.5a125.92,125.92,0,1,1,66.68,2.28v0a127,127,0,0,1-13.32,2.41v0h0V257.23a90.38,90.38,0,0,0,63.21-84.08,32.14,32.14,0,1,0-18.66,0,71.65,71.65,0,0,1-44.55,64.28V128h-1a32.14,32.14,0,1,0-25.92,0h-1V205.1A49.72,49.72,0,0,1,100,158.69a32.15,32.15,0,1,0-18.69.05,68.41,68.41,0,0,0,64.85,65.06V414.24h28V315.69C253.93,307.71,316.48,240.15,316.48,158.24ZM213.61,142.38A14.42,14.42,0,1,1,228,156.8,14.44,14.44,0,0,1,213.61,142.38ZM160.1,84.14a14.42,14.42,0,1,1-14.41,14.42A14.44,14.44,0,0,1,160.1,84.14ZM76.1,128a14.42,14.42,0,1,1,14.41,14.42A14.42,14.42,0,0,1,76.1,128Z" fill="#ee4322"/></svg>
